<?xml version="1.0" encoding="utf-8"?>
<!-- Generator: Adobe Illustrator 22.1.0, SVG Export Plug-In . SVG Version: 6.00 Build 0)  -->
<svg version="1.1" id="Слой_1" xmlns="http://www.w3.org/2000/svg" xmlns:xlink="http://www.w3.org/1999/xlink" x="0px" y="0px"
	 viewBox="0 0 457 125.8" style="enable-background:new 0 0 457 125.8;" xml:space="preserve">
<style type="text/css">
	.st0{stroke:#000000;stroke-miterlimit:10;}
</style>
<g>
	<path class="st0" d="M-360.2,87.4c25.6-9,49.2-23.7,68.5-42.8c7.7-7.6,14.9-16,24.3-21.4s22-7,30.8-0.7
		c15.2,10.9,13.1,39.6,31.1,44.6c4.5,1.3,9.4,0.5,13.8-0.9c19.2-6.2,32.1-23.9,48.9-35.2s44.9-12.6,52.4,6.2
		c4.5,11.3,0.5,27.6,11.1,33.4c7.6,4.2,16.9-0.9,24.1-5.8c22.4-15.4,44.9-30.7,67.3-46.1c8.4-5.8,20-11.6,28.1-5.3
		C53.9,24,38.2,54,54.4,60c3.5,1.3,7.4,0.7,11-0.1c20.5-4.3,40-13.1,56.9-25.4c11.3-8.2,21.7-18.2,35-22.7
		c13.2-4.4,30.7-0.8,36.1,12.1c5.4,12.8-2.6,30.3,7.2,40.2c6.7,6.8,18.2,5.5,26.4,0.8c11.1-6.4,18.4-17.5,28-25.9
		s24.2-13.9,34.9-6.9c15.1,9.9,11.1,37,27.2,45.3c13,6.6,28-4.8,36.2-16.9S369,33.6,383,29.8c2.6-0.7,5.6-1,7.9,0.4
		c2.5,1.4,3.7,4.3,4.4,7.1c3.5,12.7,2.4,29.7,14.5,35.1c9.2,4.2,19.8-2.1,26.2-9.9s10.8-17.4,18.7-23.5s21.8-6.6,26.2,2.4
		c2.8,5.6,0.8,12.7,3.6,18.4c4.6,9.3,19.1,8.3,26.8,1.3c7.7-6.9,11.2-17.3,16.8-26s15.7-16.5,25.6-13.4
		c17.7,34.2,15.5,74.8,12.8,113.2c-1.5,20.8-3.6,43.2-17.4,58.8c-14.3,16.1-37.4,20.7-58.8,22.9c-100.1,10.4-200.5-9.6-300.9-16
		c-178.4-11.3-358.8,20.6-535.5-6.2c-11.7-1.8-23.7-3.9-34.1-9.7c-19.1-10.7-30-34.4-25.8-55.9c4.3-21.5,23.3-39.2,45.1-41.9"/>
</g>
</svg>
